<?xml version="1.0" standalone="no"?>
<!DOCTYPE svg PUBLIC "-//W3C//DTD SVG 20010904//EN"
 "http://www.w3.org/TR/2001/REC-SVG-20010904/DTD/svg10.dtd">
<svg version="1.0" xmlns="http://www.w3.org/2000/svg"
 width="2362.000000pt" height="2362.000000pt" viewBox="0 0 2362.000000 2362.000000"
 preserveAspectRatio="xMidYMid meet">
<metadata>
Created by potrace 1.14, written by Peter Selinger 2001-2017
</metadata>
<g transform="translate(0.000000,2362.000000) scale(0.100000,-0.100000)"
fill="#000000" stroke="none">
<path d="M11195 21940 c-49 -4 -129 -8 -176 -9 -47 -1 -89 -4 -93 -8 -4 -5
-69 -13 -144 -20 -194 -17 -522 -61 -612 -81 -25 -6 -75 -14 -113 -17 -37 -4
-69 -11 -72 -15 -3 -5 -39 -11 -80 -15 -41 -4 -75 -11 -75 -16 0 -4 -31 -11
-70 -15 -38 -3 -70 -10 -70 -14 0 -5 -29 -12 -65 -15 -36 -4 -65 -11 -65 -16
0 -4 -27 -11 -60 -15 -33 -4 -60 -10 -60 -15 0 -4 -26 -11 -57 -15 -32 -4 -60
-10 -63 -14 -3 -4 -27 -12 -55 -18 -27 -6 -75 -18 -105 -26 -30 -8 -75 -20
-100 -27 -25 -6 -52 -15 -61 -20 -9 -4 -44 -13 -78 -20 -33 -7 -61 -16 -61
-20 0 -4 -22 -10 -50 -14 -27 -4 -50 -11 -50 -15 0 -5 -20 -12 -45 -16 -25 -3
-45 -10 -45 -15 0 -5 -18 -12 -40 -15 -22 -4 -40 -10 -40 -15 0 -4 -20 -11
-45 -15 -25 -3 -45 -10 -45 -15 0 -5 -18 -12 -40 -15 -22 -4 -40 -10 -40 -14
0 -5 -14 -11 -31 -15 -17 -4 -42 -13 -57 -21 -15 -8 -34 -14 -43 -14 -8 0 -19
-4 -25 -9 -5 -5 -25 -14 -44 -19 -51 -15 -120 -41 -157 -57 -17 -8 -38 -15
-47 -15 -9 0 -16 -4 -16 -10 0 -5 -16 -12 -35 -16 -19 -3 -35 -10 -35 -15 0
-4 -16 -11 -35 -15 -19 -3 -35 -10 -35 -14 0 -5 -14 -12 -32 -15 -17 -4 -38
-14 -46 -21 -7 -8 -22 -14 -33 -14 -10 0 -19 -4 -19 -10 0 -5 -5 -10 -11 -10
-6 0 -45 -16 -87 -36 -144 -68 -158 -74 -170 -74 -7 0 -12 -4 -12 -9 0 -5 -13
-12 -30 -16 -16 -4 -30 -10 -30 -15 0 -5 -13 -11 -30 -15 -16 -4 -30 -10 -30
-15 0 -5 -13 -11 -30 -15 -16 -4 -30 -10 -30 -15 0 -5 -13 -11 -30 -15 -16 -4
-30 -10 -30 -13 0 -4 -24 -18 -52 -32 -29 -13 -55 -27 -58 -30 -5 -7 -96 -55
-147 -79 -18 -8 -33 -18 -33 -22 0 -4 -13 -10 -30 -14 -16 -4 -30 -10 -30 -15
0 -5 -10 -12 -22 -16 -12 -3 -28 -13 -36 -20 -7 -8 -20 -14 -28 -14 -8 0 -14
-4 -14 -9 0 -5 -10 -13 -22 -17 -12 -3 -28 -13 -36 -20 -7 -8 -20 -14 -28 -14
-8 0 -14 -4 -14 -9 0 -5 -10 -13 -22 -17 -13 -4 -25 -10 -28 -13 -3 -4 -39
-27 -80 -51 -41 -25 -81 -50 -88 -57 -7 -7 -18 -13 -23 -13 -5 0 -15 -5 -22
-10 -48 -41 -62 -50 -74 -50 -7 0 -13 -3 -13 -8 0 -4 -17 -16 -37 -27 -20 -11
-41 -25 -47 -30 -6 -6 -51 -37 -101 -70 -49 -33 -95 -64 -101 -70 -6 -5 -22
-17 -34 -25 -12 -8 -31 -23 -42 -32 -12 -10 -27 -18 -34 -18 -7 0 -14 -4 -16
-9 -1 -6 -55 -48 -118 -95 -63 -47 -122 -92 -131 -101 -9 -8 -19 -15 -22 -15
-3 0 -19 -12 -35 -27 -16 -16 -39 -35 -51 -43 -13 -8 -33 -24 -45 -35 -12 -11
-44 -38 -70 -60 -27 -22 -56 -47 -66 -56 -10 -8 -31 -24 -45 -35 -15 -10 -48
-39 -75 -64 -62 -58 -144 -131 -194 -172 -107 -90 -597 -581 -686 -688 -33
-40 -142 -161 -177 -197 -18 -19 -33 -36 -33 -38 0 -5 -14 -22 -55 -70 -11
-12 -36 -42 -55 -66 -19 -24 -42 -50 -50 -59 -8 -8 -26 -31 -40 -50 -14 -19
-32 -42 -40 -50 -25 -26 -140 -176 -196 -257 -20 -29 -41 -53 -45 -53 -5 0 -9
-7 -9 -15 0 -8 -9 -23 -20 -32 -11 -10 -20 -21 -20 -26 0 -5 -7 -15 -15 -23
-8 -8 -44 -59 -81 -114 -37 -55 -70 -100 -75 -100 -4 0 -10 -11 -13 -25 -4
-14 -11 -25 -16 -25 -6 0 -10 -4 -10 -10 0 -5 -29 -51 -63 -102 -35 -51 -67
-100 -71 -108 -14 -29 -34 -63 -43 -69 -4 -3 -19 -27 -33 -53 -13 -27 -28 -48
-32 -48 -5 0 -8 -6 -8 -14 0 -8 -6 -21 -12 -28 -17 -18 -35 -46 -50 -78 -7
-14 -15 -27 -18 -30 -3 -3 -16 -26 -30 -52 -13 -27 -29 -48 -34 -48 -5 0 -6
-3 -3 -6 4 -4 -2 -19 -12 -33 -10 -14 -31 -51 -45 -81 -35 -69 -59 -114 -67
-120 -4 -3 -10 -16 -14 -30 -4 -14 -11 -27 -14 -30 -19 -14 -241 -466 -241
-489 0 -6 -4 -11 -10 -11 -5 0 -10 -6 -10 -12 -1 -7 -9 -31 -20 -53 -11 -22
-19 -46 -20 -52 0 -7 -4 -13 -9 -13 -5 0 -12 -13 -16 -30 -4 -16 -10 -30 -15
-30 -4 0 -10 -18 -14 -40 -3 -22 -10 -40 -15 -40 -5 0 -13 -15 -16 -32 -4 -18
-11 -35 -14 -38 -4 -3 -24 -50 -45 -105 -21 -55 -45 -112 -52 -127 -7 -15 -15
-41 -19 -58 -4 -16 -11 -32 -16 -35 -5 -4 -9 -14 -9 -23 -1 -9 -9 -35 -20 -57
-11 -22 -19 -48 -20 -57 0 -10 -4 -18 -10 -18 -5 0 -10 -10 -10 -22 0 -13 -7
-36 -15 -51 -8 -15 -17 -43 -21 -62 -3 -19 -10 -35 -15 -35 -4 0 -11 -20 -15
-45 -3 -25 -9 -43 -12 -40 -4 3 -12 -16 -18 -42 -18 -68 -78 -266 -86 -278 -3
-5 -9 -29 -13 -52 -4 -24 -10 -43 -15 -43 -4 0 -10 -22 -14 -50 -4 -27 -11
-52 -16 -55 -5 -3 -12 -30 -15 -60 -4 -30 -11 -55 -15 -55 -4 0 -10 -22 -14
-50 -4 -27 -10 -52 -15 -54 -5 -3 -11 -33 -15 -66 -4 -33 -11 -60 -15 -60 -5
0 -11 -26 -15 -59 -4 -32 -10 -62 -14 -66 -4 -3 -12 -34 -19 -68 -9 -53 -22
-112 -59 -287 -3 -14 -7 -34 -9 -45 -2 -11 -6 -31 -9 -45 -3 -14 -13 -65 -22
-115 -8 -49 -17 -92 -19 -95 -2 -3 -6 -29 -9 -58 -3 -29 -7 -56 -10 -60 -2 -4
-8 -35 -11 -67 -4 -33 -9 -62 -10 -65 -2 -3 -6 -29 -10 -59 -4 -30 -8 -61 -10
-70 -1 -9 -6 -47 -10 -86 -4 -38 -9 -79 -11 -90 -3 -11 -7 -47 -10 -80 -3 -33
-7 -71 -10 -85 -2 -14 -6 -52 -9 -85 -3 -33 -7 -82 -10 -110 -3 -27 -7 -90
-10 -140 -3 -49 -8 -121 -12 -160 -8 -103 -8 -1023 1 -1140 4 -55 9 -127 11
-160 2 -33 6 -78 9 -100 2 -22 8 -78 11 -125 4 -47 8 -98 11 -115 2 -16 6 -54
9 -84 4 -30 8 -59 11 -63 3 -4 -1 -8 -8 -8 -9 0 -10 -3 -2 -8 6 -4 15 -36 19
-72 10 -83 11 -95 20 -155 4 -28 9 -61 11 -75 1 -14 3 -25 4 -25 1 0 3 -9 4
-20 6 -43 17 -112 26 -155 5 -25 12 -58 14 -75 3 -16 7 -42 10 -57 9 -45 16
-80 22 -118 3 -19 9 -51 14 -70 5 -19 11 -46 14 -60 2 -14 11 -55 20 -91 16
-68 18 -81 36 -159 9 -44 35 -145 46 -185 3 -11 10 -36 14 -55 5 -19 16 -60
24 -90 8 -30 22 -80 30 -110 7 -30 19 -68 25 -83 6 -16 11 -39 11 -53 0 -13 4
-24 9 -24 5 0 11 -19 15 -42 4 -22 10 -46 14 -52 8 -12 67 -206 86 -279 6 -26
14 -45 18 -42 3 3 9 -15 12 -40 4 -25 11 -45 15 -45 5 0 12 -20 15 -45 4 -25
11 -45 16 -45 6 0 13 -18 16 -40 4 -22 10 -40 15 -40 5 0 9 -8 9 -17 1 -10 9
-36 20 -58 11 -22 19 -50 20 -62 0 -13 4 -23 9 -23 5 0 12 -14 16 -30 4 -17
12 -43 19 -58 7 -15 31 -72 52 -127 21 -55 41 -102 45 -105 3 -3 10 -20 14
-38 3 -17 11 -32 16 -32 5 0 12 -18 15 -40 4 -22 10 -40 14 -40 5 0 11 -14 15
-30 4 -17 11 -30 16 -30 5 0 9 -6 9 -12 1 -7 9 -31 20 -53 11 -22 19 -46 20
-52 0 -7 5 -13 10 -13 6 0 10 -5 10 -11 0 -23 222 -475 241 -489 3 -3 10 -16
14 -30 4 -14 10 -27 14 -30 6 -5 23 -35 69 -125 14 -27 34 -62 43 -76 10 -14
16 -29 12 -33 -3 -3 -2 -6 3 -6 5 0 21 -21 34 -47 14 -27 27 -50 30 -53 3 -3
11 -16 18 -30 15 -32 33 -60 50 -78 6 -7 12 -20 12 -28 0 -8 3 -14 8 -14 7 0
21 -22 44 -72 7 -16 16 -28 20 -28 5 0 13 -10 18 -22 12 -28 18 -37 97 -156
35 -52 63 -98 63 -103 0 -5 4 -9 10 -9 5 0 12 -11 16 -25 3 -14 9 -25 13 -25
4 0 41 -49 81 -110 41 -60 78 -110 82 -110 4 0 8 -6 8 -13 0 -8 9 -22 20 -32
11 -10 20 -24 20 -32 0 -7 4 -13 9 -13 5 0 23 -22 40 -49 18 -27 43 -61 56
-75 13 -14 39 -47 57 -73 32 -47 53 -74 96 -121 12 -14 22 -28 22 -31 0 -3 15
-22 33 -42 17 -19 48 -55 67 -78 19 -24 44 -54 55 -66 41 -48 55 -65 55 -70 0
-2 15 -19 33 -38 43 -44 150 -164 184 -206 16 -19 64 -71 108 -116 44 -45 123
-127 176 -181 92 -94 356 -349 409 -394 36 -31 146 -129 192 -170 43 -40 46
-42 113 -96 49 -38 84 -68 131 -109 12 -11 32 -27 45 -35 12 -8 35 -27 51 -42
16 -16 32 -28 36 -28 4 0 15 -8 23 -17 9 -10 26 -25 38 -33 60 -39 206 -152
209 -160 2 -6 9 -10 16 -10 7 0 22 -8 34 -18 11 -9 30 -24 42 -32 12 -8 30
-22 40 -30 23 -19 59 -43 213 -145 28 -19 57 -39 64 -45 7 -5 16 -10 21 -10 8
0 23 -11 69 -50 7 -5 17 -10 22 -10 5 0 16 -6 23 -13 7 -7 47 -33 88 -57 41
-25 77 -48 78 -52 2 -5 9 -8 16 -8 7 0 21 -9 31 -20 18 -19 31 -20 482 -20
363 0 464 3 461 12 -3 7 -21 17 -41 21 -38 9 -50 26 -19 28 18 0 140 0 1857
-6 3910 -14 6486 -23 6612 -24 51 -1 61 -4 57 -16 -5 -13 50 -15 459 -15 379
0 468 3 474 13 4 8 42 33 83 57 41 24 77 47 78 52 2 4 9 8 16 8 7 0 23 9 36
20 13 11 29 20 37 20 8 0 11 5 8 10 -3 6 1 10 9 10 8 0 21 6 28 13 7 7 31 24
53 37 22 13 42 27 45 30 3 3 23 17 45 30 37 22 114 76 142 100 7 5 16 10 21
10 5 0 18 8 30 18 11 9 30 24 42 32 12 8 30 22 40 30 10 8 28 22 40 30 12 8
30 22 40 30 10 8 28 22 40 30 12 8 28 20 34 25 6 6 29 22 51 37 22 16 54 40
71 55 18 16 42 35 54 43 23 16 44 32 98 78 18 15 38 32 45 37 55 45 124 102
135 110 6 6 28 24 46 40 19 17 51 44 70 60 20 17 60 53 89 80 73 69 129 115
139 115 5 0 6 5 3 10 -3 6 -2 10 3 10 5 0 54 44 109 97 56 54 127 123 159 154
62 60 285 293 329 344 38 44 143 160 198 218 26 28 47 54 47 58 0 4 17 25 38
47 20 22 60 69 87 104 28 34 57 70 65 79 31 34 79 95 105 133 14 21 33 45 41
53 8 8 28 36 45 61 18 26 37 52 43 57 7 6 36 45 65 88 30 42 57 77 62 77 5 0
9 7 9 15 0 8 9 23 20 32 11 10 20 23 20 29 0 7 4 14 9 16 10 4 151 216 151
228 0 4 7 10 15 14 8 3 15 12 15 21 0 8 4 15 9 15 5 0 13 10 17 22 3 12 12 28
18 35 28 31 36 43 36 50 0 8 69 115 90 140 5 7 10 15 10 19 0 6 71 125 80 134
3 3 16 28 30 55 14 28 28 52 31 55 4 3 27 43 51 90 51 97 71 133 78 140 5 5
54 99 132 250 23 47 46 87 51 88 4 2 7 10 7 18 0 8 9 31 20 51 11 21 20 43 20
50 0 7 5 13 10 13 6 0 10 5 10 12 0 12 6 26 74 170 20 42 36 81 36 87 0 6 4
11 8 11 4 0 19 32 32 70 13 39 27 70 31 70 4 0 10 16 13 35 4 19 11 35 15 35
5 0 12 16 15 35 4 19 11 35 16 35 5 0 12 16 16 35 3 19 10 35 14 35 4 0 11 15
14 33 3 17 19 64 35 103 16 38 32 84 36 102 3 18 11 32 16 32 5 0 9 10 9 23 0
12 7 35 15 51 8 15 15 33 15 40 0 6 7 24 15 39 8 15 17 43 21 62 3 19 10 35
14 35 4 0 11 20 14 45 4 25 11 45 16 45 5 0 12 20 16 45 3 25 10 45 14 45 5 0
11 19 15 43 4 23 11 47 15 52 4 6 11 27 14 49 4 21 11 46 16 55 10 18 35 109
51 186 6 27 14 52 18 55 4 3 12 28 18 55 6 28 19 79 27 115 9 36 22 90 28 120
6 30 14 60 18 65 5 6 11 33 15 60 4 28 11 55 15 60 5 6 11 40 15 77 4 38 11
68 15 68 4 0 11 32 15 70 4 39 10 70 15 70 4 0 11 33 15 73 3 39 10 77 15 82
4 6 10 39 14 75 4 36 13 99 21 140 26 140 61 406 79 615 7 77 15 147 18 155
24 57 32 1448 10 1715 -31 381 -72 732 -107 915 -8 41 -18 105 -21 143 -4 37
-10 67 -14 67 -5 0 -11 36 -15 80 -4 44 -11 80 -15 80 -4 0 -11 32 -15 70 -4
39 -11 70 -15 70 -4 0 -11 30 -15 68 -4 37 -10 72 -15 77 -4 6 -11 33 -15 60
-4 28 -10 55 -15 60 -4 6 -12 35 -18 65 -6 30 -19 84 -28 120 -8 36 -21 88
-27 115 -6 28 -14 52 -18 55 -4 3 -12 28 -18 55 -16 77 -41 168 -51 186 -5 9
-12 34 -16 55 -3 22 -10 44 -14 49 -4 6 -11 29 -15 53 -4 23 -11 42 -15 42 -5
0 -12 20 -16 45 -3 25 -10 45 -15 45 -4 0 -11 20 -15 45 -3 25 -10 45 -14 45
-4 0 -11 16 -14 35 -4 19 -13 47 -21 62 -8 15 -15 33 -15 39 0 7 -7 25 -15 40
-8 16 -15 39 -15 52 0 12 -4 22 -9 22 -5 0 -13 14 -16 32 -4 18 -20 64 -36
102 -16 39 -32 86 -35 104 -3 17 -10 32 -14 32 -4 0 -11 16 -14 35 -4 19 -11
35 -16 35 -5 0 -12 16 -16 35 -3 19 -10 35 -15 35 -4 0 -11 16 -15 35 -3 19
-9 35 -13 35 -4 0 -18 32 -31 70 -13 39 -28 70 -32 70 -4 0 -8 5 -8 11 0 6
-16 45 -36 87 -68 144 -74 158 -74 170 0 7 -4 12 -10 12 -5 0 -10 6 -10 13 0
7 -9 29 -20 50 -11 20 -20 43 -20 51 0 8 -3 16 -7 18 -5 2 -28 41 -51 88 -78
151 -127 245 -132 250 -7 7 -29 46 -68 120 -36 70 -54 102 -62 110 -3 3 -16
28 -30 55 -14 28 -27 52 -30 55 -7 7 -91 143 -109 178 -8 15 -27 45 -43 66
-15 21 -28 43 -28 48 0 5 -6 16 -12 23 -29 33 -38 45 -38 53 0 8 -11 23 -50
69 -5 7 -10 14 -10 17 0 6 -140 217 -154 232 -6 6 -18 22 -26 34 -8 12 -20 28
-25 34 -6 6 -35 47 -64 91 -30 44 -61 84 -68 88 -7 4 -13 15 -13 22 0 8 -4 15
-10 15 -5 0 -16 12 -24 28 -8 15 -23 36 -34 47 -10 11 -33 41 -51 65 -40 55
-78 104 -111 140 -14 15 -43 51 -65 80 -22 28 -57 70 -77 92 -21 22 -38 43
-38 47 0 4 -21 30 -47 58 -46 48 -144 156 -197 217 -50 56 -272 288 -330 344
-32 31 -97 94 -143 140 -47 45 -90 82 -95 82 -5 0 -6 5 -3 10 3 6 2 10 -3 10
-10 0 -18 7 -145 123 -84 77 -128 116 -180 159 -61 51 -172 143 -185 153 -7 6
-28 24 -46 40 -19 17 -44 37 -56 45 -12 8 -30 22 -40 30 -10 8 -28 22 -40 30
-12 8 -33 25 -47 38 -14 12 -37 30 -51 40 -28 18 -33 21 -69 50 -11 9 -31 24
-43 32 -12 8 -30 22 -40 30 -10 8 -28 22 -40 30 -12 8 -31 23 -42 33 -12 9
-27 17 -35 17 -8 0 -12 4 -8 9 3 5 -5 13 -17 17 -12 3 -26 10 -32 15 -29 24
-105 78 -141 99 -22 13 -42 27 -45 30 -3 3 -23 17 -45 30 -22 13 -46 30 -53
37 -7 7 -20 13 -28 13 -8 0 -12 5 -9 10 3 6 -1 10 -9 10 -8 0 -21 6 -28 13 -7
8 -25 20 -40 28 -46 24 -173 102 -178 109 -3 4 -15 10 -27 14 -13 4 -23 12
-23 17 0 5 -6 9 -14 9 -8 0 -21 6 -28 14 -8 7 -24 17 -36 20 -12 4 -22 12 -22
17 0 5 -6 9 -14 9 -8 0 -21 6 -28 14 -8 7 -25 17 -38 21 -14 4 -27 11 -30 14
-4 5 -27 18 -148 80 -15 8 -29 18 -32 22 -3 4 -18 11 -33 14 -15 4 -27 11 -27
15 0 5 -13 11 -30 15 -16 4 -30 10 -30 13 0 4 -25 18 -55 31 -30 14 -55 28
-55 32 0 4 -13 10 -30 14 -16 4 -30 10 -30 15 0 5 -13 11 -30 15 -16 4 -30 10
-30 15 0 4 -12 11 -27 15 -25 6 -124 50 -278 125 -33 16 -72 32 -87 36 -16 3
-28 10 -28 14 0 4 -16 11 -35 14 -19 4 -35 11 -35 16 0 5 -16 12 -35 16 -19 3
-33 10 -30 14 3 5 -13 11 -35 15 -22 4 -40 10 -40 14 0 4 -22 13 -50 20 -27 7
-52 17 -56 22 -3 5 -13 9 -22 9 -9 0 -29 6 -44 14 -15 8 -40 17 -57 21 -17 4
-33 11 -36 16 -4 5 -14 9 -23 9 -9 0 -30 7 -46 15 -15 8 -33 15 -40 15 -6 0
-24 7 -39 15 -15 8 -43 17 -62 21 -19 3 -35 10 -35 14 0 4 -20 11 -45 14 -25
4 -45 11 -45 15 0 5 -20 12 -45 16 -25 3 -43 10 -40 14 2 5 -18 11 -45 15 -28
4 -50 11 -50 15 0 5 -21 12 -47 16 -27 4 -62 13 -79 20 -17 7 -50 16 -72 20
-23 4 -44 10 -47 15 -3 4 -26 11 -52 15 -27 4 -52 10 -58 15 -5 4 -31 11 -57
14 -26 4 -50 11 -53 15 -2 5 -30 12 -60 16 -30 3 -55 10 -55 15 0 4 -29 11
-65 15 -36 3 -65 10 -65 15 0 4 -29 11 -65 15 -36 3 -65 10 -65 15 0 4 -31 11
-70 15 -38 4 -68 10 -65 15 2 4 -31 11 -75 14 -44 4 -80 11 -80 15 0 5 -33 12
-72 15 -40 4 -89 11 -108 16 -92 24 -553 82 -875 110 -139 13 -1300 20 -1420
10z"/>
<path d="M6770 2368 c0 -5 0 -9 1 -10 0 -2 -4 -16 -10 -33 -10 -27 -10 -28 3
-12 17 22 63 34 121 33 l40 -1 0 -203 c0 -190 -1 -205 -19 -218 -18 -12 -12
-14 55 -13 41 1 64 4 52 6 -31 6 -34 35 -31 248 l3 180 55 1 c44 0 59 -4 77
-22 l23 -23 0 37 0 37 -185 0 c-102 0 -185 -3 -185 -7z"/>
<path d="M10128 2364 c-32 -17 -58 -62 -58 -99 0 -42 25 -80 91 -136 96 -84
110 -129 59 -181 -28 -27 -35 -30 -73 -24 -45 7 -92 48 -83 72 3 8 1 14 -4 14
-14 0 -13 -87 1 -95 6 -4 39 -9 73 -11 75 -4 120 18 142 71 32 76 15 114 -90
208 -86 78 -96 108 -51 153 40 40 115 23 135 -31 5 -15 8 -9 8 21 1 39 -2 42
-30 48 -49 10 -91 6 -120 -10z"/>
<path d="M13960 2373 c-108 -3 -122 -5 -100 -16 l25 -13 1 -198 c1 -181 -1
-201 -18 -218 -17 -17 -14 -18 102 -18 120 0 121 0 130 26 16 41 12 63 -6 32
-8 -16 -20 -29 -27 -29 -47 -5 -76 -4 -99 4 l-28 9 0 99 0 98 54 -3 c61 -4 75
-10 77 -34 1 -9 5 1 8 23 8 46 4 62 -12 46 -6 -6 -37 -11 -69 -11 l-58 0 0 90
0 91 60 -4 c33 -2 61 -5 63 -8 2 -2 9 -13 15 -24 10 -17 11 -14 12 23 0 23 -1
41 -2 40 -2 -1 -59 -4 -128 -5z"/>
<path d="M16822 2360 c-23 -21 -23 -48 -7 -260 2 -25 4 -58 4 -74 2 -50 14
-19 17 41 8 153 15 274 19 293 5 25 -5 25 -33 0z"/>
<path d="M8600 2120 c0 -188 0 -191 -22 -200 -17 -7 -7 -9 42 -9 59 -1 63 1
40 12 -27 13 -26 7 -30 167 -3 145 -11 141 85 43 162 -167 210 -214 228 -224
16 -9 17 2 17 181 0 188 0 191 23 200 16 6 5 9 -43 8 -36 0 -56 -3 -45 -5 11
-3 23 -10 26 -15 3 -5 7 -71 8 -145 1 -75 4 -140 8 -146 15 -24 -28 14 -97 87
-124 131 -229 236 -235 236 -3 0 -5 -86 -5 -190z"/>
<path d="M10700 2301 c-63 -4 -105 -9 -92 -13 22 -6 22 -8 22 -182 0 -156 -2
-176 -17 -185 -13 -8 14 -10 96 -8 l115 2 7 27 c4 17 3 31 -3 34 -7 4 -8 2 -4
-4 11 -18 -37 -42 -79 -39 -62 4 -65 9 -65 98 l0 79 48 0 c50 0 66 -6 75 -30
3 -8 6 1 6 20 l1 35 -65 -3 -65 -4 0 76 0 76 48 -1 c54 -2 86 -15 76 -31 -4
-6 -3 -8 4 -4 6 3 10 20 10 36 -1 17 -1 29 -2 28 -1 -1 -53 -4 -116 -7z"/>
<path d="M11267 2303 c-2 -4 -37 -90 -76 -190 -63 -158 -76 -183 -99 -192 -22
-8 -16 -9 38 -9 36 0 57 2 47 5 -18 5 -19 25 -3 68 5 11 12 32 18 46 9 26 13
27 74 25 73 -2 74 -3 101 -88 l18 -58 55 1 c30 1 45 4 33 6 -12 2 -26 10 -32
17 -11 13 -69 148 -128 296 -28 70 -38 86 -46 73z m17 -116 c2 -7 8 -23 13
-37 29 -71 30 -70 -32 -70 -42 0 -56 3 -52 13 2 6 15 40 27 75 19 51 25 60 33
47 5 -9 10 -22 11 -28z"/>
<path d="M12445 2298 c-159 -58 -183 -274 -41 -363 45 -27 55 -29 146 -30 54
0 101 3 105 7 4 3 9 26 11 50 l5 43 -15 -32 c-14 -31 -25 -37 -88 -47 -38 -6
-97 11 -134 40 -46 34 -71 89 -71 154 -1 114 62 172 178 165 70 -4 95 -17 113
-58 l14 -32 1 51 c1 34 -3 51 -11 52 -82 9 -189 9 -213 0z"/>
<path d="M14430 2120 c0 -188 0 -191 -22 -199 -17 -7 -6 -9 42 -9 44 0 58 3
44 8 -28 11 -30 20 -33 125 -3 123 -4 137 -2 157 1 12 58 -39 164 -145 l162
-162 5 194 c5 182 6 194 25 202 13 5 -4 7 -45 7 -36 0 -56 -3 -45 -5 11 -3 23
-10 26 -15 6 -9 14 -262 10 -290 -1 -6 -96 89 -259 260 -33 34 -63 62 -66 62
-3 0 -6 -86 -6 -190z"/>
<path d="M15639 2287 c-68 -34 -123 -126 -113 -192 9 -63 17 -84 45 -118 39
-47 80 -69 141 -74 134 -11 238 84 238 217 0 43 -29 108 -61 137 -58 53 -176
67 -250 30z m184 -23 c43 -30 70 -96 70 -169 0 -125 -77 -192 -190 -163 -138
34 -169 276 -43 341 44 23 125 19 163 -9z"/>
<path d="M7428 2290 c23 -10 23 -11 22 -185 -2 -152 -4 -176 -18 -184 -12 -7
4 -10 53 -9 39 1 61 3 50 6 -31 7 -35 20 -35 114 l0 87 115 -1 115 -2 0 -93
c0 -88 -1 -94 -22 -103 -17 -6 -2 -9 52 -8 41 0 66 3 55 5 -11 3 -23 10 -27
17 -4 6 -8 86 -8 178 0 149 2 168 18 177 13 8 1 10 -48 10 -49 0 -59 -3 -42
-9 20 -8 22 -16 22 -80 l0 -70 -115 0 -115 0 0 70 c0 55 3 71 18 79 13 8 1 10
-48 10 -50 0 -60 -2 -42 -9z"/>
<path d="M8148 2290 c22 -9 22 -12 22 -179 0 -137 -3 -172 -15 -184 -13 -14
-7 -15 53 -15 42 0 58 3 42 7 l-25 7 -3 174 c-2 156 -1 176 15 187 14 11 6 13
-48 12 -48 0 -59 -2 -41 -9z"/>
<path d="M9298 2290 c25 -11 24 0 24 -204 1 -134 -1 -150 -17 -163 -17 -11
-11 -13 46 -12 35 0 57 3 49 6 -26 10 -30 25 -30 112 l0 84 58 -63 c31 -35 79
-80 105 -102 41 -32 56 -38 95 -37 l47 0 -37 17 c-36 16 -218 183 -218 200 0
16 138 142 171 157 l34 14 -60 0 c-40 1 -55 -2 -46 -8 12 -8 -2 -27 -67 -93
l-82 -83 0 82 c0 68 3 84 18 92 13 8 1 10 -48 10 -49 0 -59 -3 -42 -9z"/>
<path d="M11728 2290 c25 -11 24 -4 23 -210 0 -125 -3 -147 -18 -157 -14 -11
-5 -13 53 -12 38 1 60 4 49 6 -30 8 -35 21 -35 96 l0 67 43 0 c36 0 45 -4 59
-27 9 -16 26 -39 38 -53 12 -14 27 -32 34 -41 24 -32 61 -49 106 -48 29 1 35
3 18 6 -18 3 -48 27 -87 70 -85 94 -89 105 -57 140 30 33 41 78 28 114 -16 42
-61 56 -176 57 -71 1 -94 -1 -78 -8z m180 -28 c27 -21 39 -83 23 -124 -11 -30
-55 -47 -103 -40 l-28 4 0 89 0 89 43 0 c25 0 51 -8 65 -18z"/>
<path d="M12968 2290 c22 -9 22 -12 22 -184 0 -153 -2 -176 -17 -184 -11 -7 4
-10 53 -10 38 0 60 3 49 5 -31 8 -35 21 -35 115 l0 87 113 -2 112 -2 2 -90 c1
-72 -2 -92 -15 -102 -13 -11 -4 -13 54 -12 44 1 60 3 44 8 l-25 7 -3 174 c-3
157 -1 176 14 187 15 11 8 13 -47 12 -48 0 -59 -2 -41 -9 20 -8 22 -16 22 -80
l0 -70 -115 0 -115 0 0 70 c0 55 3 71 18 79 13 8 1 10 -48 10 -49 0 -59 -3
-42 -9z"/>
<path d="M15128 2290 c23 -10 23 -10 22 -207 -2 -215 -7 -242 -57 -289 l-28
-27 30 16 c45 23 82 67 94 112 6 22 11 117 11 212 0 153 2 173 18 182 13 8 1
10 -48 10 -50 0 -60 -2 -42 -9z"/>
<path d="M16187 2290 c21 -9 73 -79 126 -171 22 -38 27 -58 27 -117 0 -57 -3
-73 -17 -81 -14 -8 0 -10 52 -10 44 1 61 4 45 8 -24 6 -25 11 -28 84 -3 85 -2
87 71 199 31 48 61 81 76 87 22 8 19 10 -26 10 -44 1 -51 -1 -46 -17 4 -17
-83 -172 -96 -172 -12 1 -102 164 -97 177 4 10 -8 13 -52 12 -43 0 -52 -2 -35
-9z"/>
<path d="M9705 1974 c-16 -12 -18 -18 -7 -34 15 -25 15 -53 0 -68 -6 -6 -9
-14 -6 -17 8 -8 44 45 51 76 4 15 1 33 -6 42 -11 14 -14 14 -32 1z"/>
<path d="M13476 1965 c-3 -9 0 -25 6 -35 10 -15 10 -27 1 -52 l-12 -33 23 29
c25 30 38 70 29 93 -7 18 -40 16 -47 -2z"/>
<path d="M16807 1954 c-14 -15 -6 -43 14 -49 23 -8 41 9 36 35 -2 16 -38 26
-50 14z"/>
</g>
</svg>
