<svg id="Group_216" data-name="Group 216" xmlns="http://www.w3.org/2000/svg" width="19.176" height="19.176" viewBox="0 0 19.176 19.176">
  <g id="Group_199" data-name="Group 199">
    <g id="Group_198" data-name="Group 198">
      <path id="Path_70" data-name="Path 70" d="M9.588,0a9.588,9.588,0,1,0,9.588,9.588A9.6,9.6,0,0,0,9.588,0Zm0,17.081A7.492,7.492,0,1,1,17.08,9.588,7.5,7.5,0,0,1,9.588,17.081Z" fill="#575757"/>
      <path id="Path_71" data-name="Path 71" d="M258.413,144.086v-4.019a.812.812,0,1,0-1.624,0v4.278c0,.013,0,.025,0,.038a.808.808,0,0,0,.234.614l3.025,3.025a.812.812,0,0,0,1.149-1.149Z" transform="translate(-247.995 -134.486)" fill="#575757"/>
    </g>
  </g>
</svg>
