<svg xmlns="http://www.w3.org/2000/svg" width="42.092" height="42.092" viewBox="0 0 42.092 42.092">
  <g id="Group_136" data-name="Group 136" transform="translate(-0.375 -0.375)">
    <circle id="Ellipse_9" data-name="Ellipse 9" cx="21" cy="21" r="21" transform="translate(0.375 0.375)" fill="#ffce00"/>
    <path id="Path_26" data-name="Path 26" d="M132.562,122.52a21.4,21.4,0,0,0-.135-2.406l-9.636-9.636-4.993,1.777,1.309,1.309-5.987,5.014-7.738-7.738-5.238,1.406,3.334,3.334-5.147,17.714,10.247,10.227a21.2,21.2,0,0,0,23.984-21Z" transform="translate(-90.096 -101.238)" fill="#ffa300"/>
    <path id="Path_27" data-name="Path 27" d="M122.392,120.225h4.3v3.26h-4.3Z" transform="translate(-112.166 -110.178)" fill="#555a66"/>
    <path id="Path_28" data-name="Path 28" d="M336.593,120.225h4.3v3.26h-4.3Z" transform="translate(-308.642 -110.178)" fill="#333940"/>
    <path id="Path_29" data-name="Path 29" d="M118.861,108.354h-3.469a1.177,1.177,0,0,1,0-2.354h3.469a1.177,1.177,0,1,1,0,2.354Z" transform="translate(-104.665 -97.13)" fill="#414952"/>
    <path id="Path_30" data-name="Path 30" d="M332.056,108.354h-3.469a1.177,1.177,0,0,1,0-2.354h3.469a1.177,1.177,0,0,1,0,2.354Z" transform="translate(-300.218 -97.13)" fill="#23272b"/>
    <path id="Path_31" data-name="Path 31" d="M93.054,212.62H91.181a2.812,2.812,0,0,1-2.812-2.812V196.063h9.85l-2.392,14.212a2.812,2.812,0,0,1-2.773,2.345Z" transform="translate(-80.958 -179.741)" fill="#636978"/>
    <path id="Path_32" data-name="Path 32" d="M321.317,212.62h1.873A2.812,2.812,0,0,0,326,209.808V196.063h-9.85l2.392,14.212a2.812,2.812,0,0,0,2.773,2.345Z" transform="translate(-289.892 -179.741)" fill="#414952"/>
    <path id="Path_33" data-name="Path 33" d="M168.394,160.918h12.842v10.219H168.394Z" transform="translate(-154.361 -147.504)" fill="#555a66"/>
    <path id="Path_34" data-name="Path 34" d="M262,160.918h5.1v10.219H262Z" transform="translate(-240.221 -147.504)" fill="#414952"/>
    <circle id="Ellipse_10" data-name="Ellipse 10" cx="7.233" cy="7.233" r="7.233" transform="translate(6.47 11.846)" fill="#414952"/>
    <circle id="Ellipse_11" data-name="Ellipse 11" cx="7.233" cy="7.233" r="7.233" transform="translate(22.585 11.846)" fill="#23272b"/>
    <circle id="Ellipse_12" data-name="Ellipse 12" cx="1.39" cy="1.39" r="1.39" transform="translate(28.428 14.075)" fill="#ff6c52"/>
    <circle id="Ellipse_13" data-name="Ellipse 13" cx="1.39" cy="1.39" r="1.39" transform="translate(28.428 21.304)" fill="#4a7aff"/>
    <circle id="Ellipse_14" data-name="Ellipse 14" cx="1.39" cy="1.39" r="1.39" transform="translate(32.042 17.689)" fill="#00d65b"/>
    <circle id="Ellipse_15" data-name="Ellipse 15" cx="1.39" cy="1.39" r="1.39" transform="translate(24.813 17.689)" fill="#ffce00"/>
    <path id="Path_35" data-name="Path 35" d="M116.572,176.955h-1.531v-1.53a1.531,1.531,0,1,0-3.061,0v1.531H110.45a1.531,1.531,0,0,0,0,3.061h1.531v1.531a1.531,1.531,0,1,0,3.061,0v-1.531h1.531a1.531,1.531,0,0,0,0-3.061Z" transform="translate(-99.808 -159.406)" fill="#afb4c8"/>
  </g>
</svg>
