<svg xmlns="http://www.w3.org/2000/svg" width="41.211" height="41.159" viewBox="0 0 41.211 41.159"><path d="M30.035,1.916,6.255.325a1.41,1.41,0,0,0-1.5,1.311L4.569,4.418H1.409A1.41,1.41,0,0,0,0,5.827V40.073a1.41,1.41,0,0,0,1.409,1.409h18.2a.61.61,0,0,0,.426-.176l2.748-2.736a.6.6,0,0,0,.086.013l4.691.314a1.444,1.444,0,0,0,1.5-1.311L31.346,3.415a1.421,1.421,0,0,0-1.311-1.5Zm-9.82,37.5V35.223a.2.2,0,0,1,.2-.2h4.177ZM27.856,37.5a.2.2,0,0,1-.214.187l-3.725-.249L26.473,34.9a.6.6,0,0,0,.178-.428V5.827a1.41,1.41,0,0,0-1.409-1.409H18.964a.6.6,0,0,0,0,1.207h6.278a.2.2,0,0,1,.2.2V33.814H20.416a1.41,1.41,0,0,0-1.409,1.409v5.051H1.409a.2.2,0,0,1-.2-.2V5.827a.2.2,0,0,1,.2-.2H15.749a.6.6,0,0,0,0-1.207H5.779l.181-2.7a.2.2,0,0,1,.214-.187l23.78,1.59a.2.2,0,0,1,.187.214Z" transform="translate(0 -0.322)" fill="#333"/><path d="M72.842,237.047H56.378a.6.6,0,0,0,0,1.207H72.842a.6.6,0,0,0,0-1.207Z" transform="translate(-51.285 -217.993)" fill="#333"/><path d="M72.842,289.332H56.378a.6.6,0,1,0,0,1.207H72.842a.6.6,0,1,0,0-1.207Z" transform="translate(-51.285 -266.07)" fill="#333"/><path d="M55.774,185.366a.6.6,0,0,0,.6.6H72.842a.6.6,0,1,0,0-1.207H56.378A.6.6,0,0,0,55.774,185.366Z" transform="translate(-51.285 -169.916)" fill="#333"/><path d="M91.807,133.081a.6.6,0,0,0,.6.6h10.664a.6.6,0,1,0,0-1.207H92.411A.6.6,0,0,0,91.807,133.081Z" transform="translate(-84.417 -121.84)" fill="#333"/><path d="M64.742,391.05l-3.257.007H60.39c-.661,0-1.107-.132-1.255-.86-.125-.615-1-.532-1.164,0-.418,1.315-1.109.8-1.5-.085a12.384,12.384,0,0,1-.654-2.809c-.124-.69-1.168-.5-1.186.16a11.249,11.249,0,0,1-.324,2.556,20.509,20.509,0,0,1-.9,2.525c-.294.721.875,1.032,1.164.321a23.309,23.309,0,0,0,.82-2.231c.414.995,1.27,2.12,2.489,1.457a2.431,2.431,0,0,0,.625-.5,2.951,2.951,0,0,0,2.462.674l3.773-.008A.6.6,0,0,0,64.742,391.05Z" transform="translate(-49.066 -355.758)" fill="#333"/><path d="M408.123,180.328a1.736,1.736,0,0,0-1.183-.484l-.456,0v-.863a1.671,1.671,0,0,0-.759-1.357v-1.215c0-2.5-3.893-2.49-3.893.012v1.215a1.6,1.6,0,0,0-.761,1.356v.884a1.667,1.667,0,0,0,0,3.319c.013,2.7.012,5.361,0,8.108a.6.6,0,0,0,1.207.006c.014-2.75.015-5.411,0-8.115l3-.015s0,8.922,0,12.942a1.5,1.5,0,0,1-3-.02V195a.6.6,0,0,0-1.205-.073v1.033a2.965,2.965,0,0,0,.8,2.163,5.048,5.048,0,0,0,1.479,3.377.64.64,0,0,0,.865-.015,4.978,4.978,0,0,0,1.462-3.414,2.492,2.492,0,0,0,.8-2.165v-5.5a1.691,1.691,0,0,0,2.133-1.605v-7.3A1.647,1.647,0,0,0,408.123,180.328Zm-5.845-.461v-.873a.388.388,0,0,1,.288-.373l2.417-.012a.381.381,0,0,1,.295.374v.869Zm1.5-4.186a.786.786,0,0,1,.737.729v.979l-1.479.007v-.975A.745.745,0,0,1,403.781,175.682Zm0,24.461a3.851,3.851,0,0,1-.6-1.321,2.625,2.625,0,0,0,1.2-.015A3.764,3.764,0,0,1,403.78,200.143ZM407.4,188.8a.461.461,0,0,1-.922.011s0-5.713,0-6.236a.609.609,0,0,0-.608-.6l-4.7.023a.458.458,0,0,1,.006-.915l5.764-.029a.453.453,0,0,1,.458.452v7.3Z" transform="translate(-367.4 -160.518)" fill="#333"/></svg>