<svg xmlns="http://www.w3.org/2000/svg" version="1.1" xmlns:xlink="http://www.w3.org/1999/xlink" xmlns:svgjs="http://svgjs.com/svgjs" width="512" height="512" x="0" y="0" viewBox="0 0 469.355 469.355" style="enable-background:new 0 0 512 512" xml:space="preserve" class=""><g>
<g xmlns="http://www.w3.org/2000/svg">
	<g>
		<g>
			<path d="M47.105,85.355h91.584c0,5.803,0.576,11.584,1.749,17.195c1.109,5.461,2.773,10.837,4.971,16.043     c2.155,5.056,4.8,9.941,7.851,14.485c3.307,4.885,9.899,6.165,14.805,2.88c4.885-3.307,6.165-9.92,2.88-14.805     c-2.304-3.413-4.288-7.061-5.909-10.859c-1.621-3.904-2.88-7.936-3.712-12.032c-0.853-4.203-1.301-8.555-1.301-12.907     s0.448-8.704,1.301-12.907c0.832-4.096,2.091-8.128,3.712-11.989c1.621-3.84,3.584-7.467,5.888-10.88s4.928-6.592,7.808-9.472     c2.923-2.901,6.123-5.525,9.515-7.829c3.413-2.304,7.061-4.288,10.859-5.909c3.883-1.643,7.915-2.88,12.011-3.712     c8.427-1.728,17.387-1.728,25.813,0c4.075,0.832,8.128,2.091,11.989,3.712c3.84,1.621,7.467,3.584,10.88,5.888     s6.592,4.928,9.472,7.808c2.901,2.901,5.525,6.101,7.829,9.493c2.304,3.413,4.288,7.061,5.909,10.859     c1.643,3.883,2.88,7.915,3.712,12.011c0.853,4.224,1.301,8.576,1.301,12.928s-0.448,8.704-1.301,12.907     c-0.832,4.075-2.091,8.128-3.712,11.989c-1.621,3.84-3.584,7.467-5.909,10.88c-3.285,4.885-2.005,11.52,2.88,14.805     c1.835,1.237,3.904,1.813,5.952,1.813c3.435,0,6.784-1.643,8.853-4.693c3.072-4.523,5.717-9.408,7.872-14.507     c2.197-5.184,3.861-10.56,4.971-16c1.152-5.611,1.728-11.392,1.728-17.195h91.584l-24.448,24.448     c-4.16,4.16-4.16,10.923,0,15.083c2.069,2.091,4.8,3.136,7.531,3.136s5.461-1.045,7.552-3.115l42.645-42.645     c0.981-0.981,1.771-2.176,2.325-3.477c1.088-2.603,1.088-5.547,0-8.149c-0.533-1.323-1.323-2.496-2.325-3.477l-42.645-42.645     c-4.16-4.16-10.923-4.16-15.083,0c-4.16,4.16-4.16,10.923,0,15.083l24.448,24.427h-94.613c-1.045-4.011-2.069-8.043-3.691-11.904     c-2.155-5.077-4.8-9.963-7.872-14.507c-3.051-4.501-6.549-8.747-10.411-12.629c-3.861-3.84-8.085-7.339-12.608-10.411     c-4.523-3.072-9.408-5.717-14.507-7.872c-5.184-2.197-10.56-3.861-16-4.971c-11.221-2.304-23.168-2.304-34.389,0     c-5.461,1.109-10.837,2.773-16.043,4.971c-5.077,2.197-9.963,4.843-14.507,7.915c-4.501,3.051-8.747,6.549-12.629,10.411     c-3.84,3.861-7.339,8.085-10.411,12.608c-3.051,4.544-5.696,9.429-7.872,14.507c-1.621,3.84-2.645,7.872-3.669,11.883H47.105     l24.448-24.448c4.16-4.16,4.16-10.923,0-15.083c-4.16-4.16-10.923-4.16-15.083,0L13.825,67.136     c-0.981,0.981-1.771,2.176-2.325,3.477c-1.088,2.603-1.088,5.547,0,8.149c0.533,1.323,1.323,2.496,2.325,3.477l42.645,42.645     c2.091,2.091,4.821,3.136,7.552,3.136c2.731,0,5.461-1.045,7.552-3.115c4.16-4.181,4.16-10.923,0-15.104L47.105,85.355z" fill="#000000" data-original="#000000"></path>
			<path d="M426.732,235.392c-11.2-2.816-22.869-0.917-32.043,4.373v-5.717c0-23.424-19.136-42.453-42.667-42.453     c-7.765,0-15.061,2.069-21.333,5.696v-5.696c0-23.531-19.136-42.667-42.667-42.667c-7.765,0-15.061,2.091-21.333,5.739V85.141     c0-23.403-19.136-42.453-42.667-42.453c-23.531,0-42.667,19.051-42.667,42.453v132.864c-6.016-3.371-12.992-5.291-20.48-5.291     c-13.333,0-24.491,4.779-32.299,13.803c-9.323,10.795-13.12,27.179-10.475,44.971c11.371,74.539,38.485,137.344,80.555,186.667     c6.08,7.125,15.04,11.2,24.576,11.2h167.04c12.928,0,24.512-7.552,29.461-19.285c24.171-57.387,38.357-119.509,38.933-170.368     C458.923,258.411,445.782,240.192,426.732,235.392z M400.065,441.771c-1.6,3.797-5.44,6.251-9.813,6.251h-167.04     c-3.243,0-6.336-1.365-8.32-3.691c-39.488-46.272-64.96-105.493-75.712-176.021c-1.707-11.435,0.363-21.845,5.525-27.861     c3.712-4.309,9.003-6.4,16.128-6.4c11.477,0,20.48,9.365,20.48,21.333c0,5.888,4.779,10.667,10.667,10.667     s10.667-4.779,10.667-10.667V85.141c0.043-11.435,9.813-21.12,21.376-21.12c11.563,0,21.333,9.685,21.333,21.12v106.453     c0,5.888,4.779,10.667,10.667,10.667s10.667-4.779,10.667-10.667c0-11.755,9.579-21.333,21.333-21.333     c11.755,0,21.333,9.579,21.333,21.333v42.453c0,5.888,4.779,10.667,10.667,10.667s10.667-4.779,10.667-10.667     c0-11.456,9.771-21.12,21.333-21.12s21.333,9.685,21.333,21.12v42.453c0,5.888,4.779,10.667,10.667,10.667     s10.667-4.779,10.667-10.667c0-13.248,13.461-23.68,26.816-20.437c9.301,2.347,15.957,12.181,15.829,23.381     C436.801,326.955,422.87,387.648,400.065,441.771z" fill="#000000" data-original="#000000"></path>
		</g>
	</g>
</g>
</g></svg>