<svg xmlns="http://www.w3.org/2000/svg" width="164.976" height="164.976" viewBox="0 0 164.976 164.976">
  <g id="Group_267" data-name="Group 267" transform="translate(-1 -1)">
    <g id="Group_267-2" data-name="Group 267" transform="translate(1 1)">
      <path id="Path_88" data-name="Path 88" d="M53.592,19A34.592,34.592,0,1,0,88.184,53.592,34.625,34.625,0,0,0,53.592,19ZM76.156,34.965H67.189a37.214,37.214,0,0,0-3.7-8.887,29.255,29.255,0,0,1,12.666,8.887ZM53.592,24.322c2.874,0,5.907,4.071,8.009,10.644H45.582c2.1-6.572,5.136-10.644,8.009-10.644Zm9.366,15.965a66.515,66.515,0,0,1,1.224,10.644H43a66.515,66.515,0,0,1,1.224-10.644ZM43.72,26.078a36.156,36.156,0,0,0-3.725,8.887H31.027A29.182,29.182,0,0,1,43.72,26.078ZM27.542,40.287H38.771A76.52,76.52,0,0,0,37.68,50.931H24.455A29.338,29.338,0,0,1,27.542,40.287ZM27.568,66.9a28.855,28.855,0,0,1-3.113-10.644H37.68A76.52,76.52,0,0,0,38.771,66.9Zm3.459,5.322h8.967a37.682,37.682,0,0,0,3.7,8.887,29.255,29.255,0,0,1-12.666-8.887ZM53.592,82.862c-2.874,0-5.907-4.071-8.009-10.644H61.6c-2.1,6.572-5.136,10.644-8.009,10.644ZM44.225,66.9A66.515,66.515,0,0,1,43,56.253H64.182A66.515,66.515,0,0,1,62.958,66.9ZM63.464,81.106a35.577,35.577,0,0,0,3.7-8.887h8.994A29.182,29.182,0,0,1,63.464,81.106ZM79.615,66.9h-11.2A76.521,76.521,0,0,0,69.5,56.253H82.729A28.856,28.856,0,0,1,79.615,66.9Zm3.113-15.965H69.5a76.52,76.52,0,0,0-1.091-10.644h11.2a28.855,28.855,0,0,1,3.113,10.644Z" transform="translate(28.896 28.896)" fill="#fff"/>
      <path id="Path_89" data-name="Path 89" d="M165.976,56.879V8.983A8.006,8.006,0,0,0,157.993,1H131.384A8.006,8.006,0,0,0,123.4,8.983v11.6A74.075,74.075,0,0,0,93.972,9.728h-.08a10.6,10.6,0,0,0-20.861,0H73A68.988,68.988,0,0,0,64.862,11.4V1H1V48.9H17.5A73.07,73.07,0,0,0,9.754,73.031a10.623,10.623,0,0,0,0,20.915,74.971,74.971,0,0,0,2.581,11.575c-.373.133-.718.293-1.064.452l-3.965,2A11.346,11.346,0,0,0,1,118.16v1.969a10.73,10.73,0,0,0,.106,1.6A52.271,52.271,0,0,0,45.251,165.87a10.731,10.731,0,0,0,1.6.106h1.969a11.347,11.347,0,0,0,10.191-6.306l2-3.965c.16-.346.319-.692.452-1.064a74.974,74.974,0,0,0,11.575,2.581,10.62,10.62,0,0,0,20.915-.027,73.662,73.662,0,0,0,34.778-14.5v4.657a18.647,18.647,0,0,0,18.626,18.626v-5.322a13.309,13.309,0,0,1-13.3-13.3V136.706a13.3,13.3,0,1,1,26.609,0v21.287a2.661,2.661,0,1,1-5.322,0V136.706a7.983,7.983,0,1,0-15.965,0V147.35a7.929,7.929,0,0,0,10.644,7.5v3.14a7.983,7.983,0,1,0,15.965,0V136.706a18.666,18.666,0,0,0-16.577-18.52,73.171,73.171,0,0,0,7.823-24.241,10.623,10.623,0,0,0,0-20.915,76.306,76.306,0,0,0-1.57-8.169h2.342A8.006,8.006,0,0,0,165.976,56.879ZM150.011,147.35a2.661,2.661,0,1,1-5.322,0V136.706a2.661,2.661,0,0,1,5.322,0ZM128.723,8.983a2.669,2.669,0,0,1,2.661-2.661h26.609a2.669,2.669,0,0,1,2.661,2.661v2.661H128.723Zm0,7.983h31.931V48.9H128.723ZM83.541,6.242A5.385,5.385,0,0,1,88.89,11.59a5.364,5.364,0,0,1-9.473,3.459,5.3,5.3,0,0,1-1.251-3.459,4.739,4.739,0,0,1,.346-1.863,5.323,5.323,0,0,1,5.029-3.486Zm-27.3.08L37.082,27.609H28.806L9.648,6.322Zm3.3,4.284V41.259L42.3,29.764Zm-53.218,0L23.564,29.764,6.322,41.259Zm6.12,32.969L28.407,32.931h9.047L53.42,43.574Zm-.8,45.235a5.322,5.322,0,1,1,5.322-5.322A5.337,5.337,0,0,1,11.644,88.81Zm44.6,64.527-2,3.965a6.025,6.025,0,0,1-5.428,3.353H46.847c-.266,0-.559-.027-.851-.053A46.966,46.966,0,0,1,6.375,120.98c-.027-.293-.053-.585-.053-.851V118.16a6.025,6.025,0,0,1,3.353-5.428l3.965-2a6.1,6.1,0,0,1,2.741-.639,6.027,6.027,0,0,1,5.641,3.832l2.182,5.455a11.048,11.048,0,0,1,.745,4.045,10.413,10.413,0,0,1-3.592,7.876L19.2,133.194l.559,1.676a19.669,19.669,0,0,0,12.32,12.347l1.57.506,2.634-2.634a10.583,10.583,0,0,1,11.309-2.315l5.455,2.182a6.027,6.027,0,0,1,3.832,5.641,6.1,6.1,0,0,1-.639,2.741Zm27.248,7.317a5.322,5.322,0,1,1,5.322-5.322A5.337,5.337,0,0,1,83.488,160.654Zm59.6-42.069a18.616,18.616,0,0,0-14.316,17.163A68.845,68.845,0,0,1,93.52,151.9a10.583,10.583,0,0,0-20.063,0,69.018,69.018,0,0,1-11.362-2.634,11.318,11.318,0,0,0-7.051-9.233l-5.481-2.182a15.988,15.988,0,0,0-17.056,3.486l-.213.239a14.125,14.125,0,0,1-6.839-6.785,15.978,15.978,0,0,0,4.816-11.522,15.428,15.428,0,0,0-1.144-5.881l-2.155-5.455a11.393,11.393,0,0,0-9.26-7.051A69.019,69.019,0,0,1,15.076,93.52a10.577,10.577,0,0,0-.027-20.063A68.429,68.429,0,0,1,23.591,48.9H64.862V16.859A69.92,69.92,0,0,1,73.43,15.05a10.577,10.577,0,0,0,20.063.027h.027A69.112,69.112,0,0,1,123.4,27.024V56.879a8.006,8.006,0,0,0,7.983,7.983h18.733a70.343,70.343,0,0,1,1.809,8.595,10.571,10.571,0,0,0,0,20.063,68.386,68.386,0,0,1-8.834,25.066Zm17.562-35.1a5.322,5.322,0,1,1-5.322-5.322A5.337,5.337,0,0,1,160.654,83.488ZM131.384,59.54a2.669,2.669,0,0,1-2.661-2.661V54.218h31.931v2.661a2.669,2.669,0,0,1-2.661,2.661Z" transform="translate(-1 -1)" fill="#fff"/>
      <path id="Path_90" data-name="Path 90" d="M47,31H62.965v5.322H47Z" transform="translate(75.402 48.827)" fill="#fff"/>
      <path id="Path_91" data-name="Path 91" d="M31,47h5.322V62.965H31Z" transform="translate(48.827 75.402)" fill="#fff"/>
      <path id="Path_92" data-name="Path 92" d="M11,31H26.965v5.322H11Z" transform="translate(15.609 48.827)" fill="#fff"/>
      <path id="Path_93" data-name="Path 93" d="M31,11h5.322V26.965H31Z" transform="translate(48.827 15.609)" fill="#fff"/>
    </g>
  </g>
</svg>
