<svg xmlns="http://www.w3.org/2000/svg" width="32" height="32" viewBox="0 0 32 32"><g transform="translate(0.215 0.215)"><g transform="translate(-0.215 -0.215)"><circle cx="16" cy="16" r="16" fill="#6d84e1"/><path d="M234.736,0q-.707,0-1.4.061a15.811,15.811,0,0,1,0,31.5q.692.061,1.4.061a15.81,15.81,0,0,0,0-31.621Z" transform="translate(-218.814 0.112)" fill="#6179db"/><path d="M152.3,70a13.145,13.145,0,0,1-6.617-1.757.477.477,0,0,1,.536-.79A12.166,12.166,0,1,0,152.3,44.737a.477.477,0,1,1,0-.954A13.106,13.106,0,0,1,152.3,70Z" transform="translate(-136.377 -40.967)" fill="#fff"/><path d="M147.147,182.644a1.12,1.12,0,0,1-.795-.329l-3.7-3.7a1.125,1.125,0,0,1,1.59-1.59l2.9,2.9,7.3-7.3c1.013-1.013,2.625.554,1.59,1.59l-8.094,8.094A1.12,1.12,0,0,1,147.147,182.644Z" transform="translate(-133.423 -161.551)" fill="#fff"/><g transform="translate(12.205 3.21)"><path d="M196.27,51.118a.477.477,0,0,0,0-.954A.477.477,0,0,0,196.27,51.118Z" transform="translate(-195.809 -50.164)" fill="#fff"/></g><g transform="translate(9.149 4.47)"><path d="M146.792,71.515a.477.477,0,0,0,0-.954A.477.477,0,0,0,146.792,71.515Z" transform="translate(-146.331 -70.561)" fill="#fff"/></g><g transform="translate(6.523 6.477)"><path d="M104.279,104.023a.477.477,0,0,0,0-.954A.477.477,0,0,0,104.279,104.023Z" transform="translate(-103.818 -103.069)" fill="#fff"/></g><g transform="translate(4.507 9.096)"><path d="M71.629,146.427a.477.477,0,0,0,0-.954A.477.477,0,0,0,71.629,146.427Z" transform="translate(-71.168 -145.473)" fill="#fff"/></g><g transform="translate(3.237 12.147)"><path d="M51.066,195.836a.477.477,0,0,0,0-.954A.477.477,0,0,0,51.066,195.836Z" transform="translate(-50.605 -194.882)" fill="#fff"/></g><g transform="translate(2.8 15.424)"><path d="M43.991,248.884a.477.477,0,0,0,0-.954A.477.477,0,0,0,43.991,248.884Z" transform="translate(-43.53 -247.93)" fill="#fff"/></g><g transform="translate(3.226 18.701)"><path d="M50.888,301.955a.477.477,0,0,0,0-.954A.477.477,0,0,0,50.888,301.955Z" transform="translate(-50.427 -301.001)" fill="#fff"/></g><g transform="translate(4.486 21.757)"><path d="M71.285,351.433a.477.477,0,0,0,0-.954A.477.477,0,0,0,71.285,351.433Z" transform="translate(-70.824 -350.479)" fill="#fff"/></g><g transform="translate(6.493 24.383)"><path d="M103.793,393.946a.477.477,0,0,0,0-.954A.477.477,0,0,0,103.793,393.946Z" transform="translate(-103.332 -392.992)" fill="#fff"/></g></g></g></svg>