<svg xmlns="http://www.w3.org/2000/svg" width="371" height="164" viewBox="0 0 371 164"><path d="M385,164H14v-5.083a6,6,0,0,0,0-11.834v-4.166a6,6,0,0,0,0-11.834v-4.167a6,6,0,0,0,0-11.833v-3.167a6,6,0,0,0,0-11.833V94.911a12.5,12.5,0,0,0,0-24.822V64.917a6,6,0,0,0,0-11.833V48.916a6,6,0,0,0,0-11.833V32.917a6,6,0,0,0,0-11.834V17.917A6,6,0,0,0,14,6.083V0H385V6.342a6,6,0,0,0,0,11.317v3.682a6,6,0,0,0,0,11.318v4.682a6,6,0,0,0,0,11.317v4.683a6,6,0,0,0,0,11.317v5.431a12.5,12.5,0,0,0,0,24.822v5.43a6,6,0,0,0,0,11.317v3.683a6,6,0,0,0,0,11.317v4.683a6,6,0,0,0,0,11.317v4.682a6,6,0,0,0,0,11.318V164Z" transform="translate(-14 0)" fill="#fff"/></svg>