<svg xmlns="http://www.w3.org/2000/svg" width="309" height="294" viewBox="0 0 309 294">
  <path id="Polygon_1" data-name="Polygon 1" d="M148.074,14.868a7,7,0,0,1,12.851,0l35.963,83.216a7,7,0,0,0,5.769,4.192l90.229,8.5A7,7,0,0,1,296.858,123l-68.005,59.94a7,7,0,0,0-2.2,6.78l19.8,88.478a7,7,0,0,1-10.4,7.552l-77.986-46.175a7,7,0,0,0-7.133,0L72.947,285.75a7,7,0,0,1-10.4-7.552l19.8-88.478a7,7,0,0,0-2.2-6.78L12.142,123a7,7,0,0,1,3.972-12.22l90.229-8.5a7,7,0,0,0,5.769-4.192Z" fill="rgba(0,0,0,0.17)"/>
</svg>
