<svg xmlns="http://www.w3.org/2000/svg" width="78.283" height="177.175" viewBox="0 0 78.283 177.175">
  <path id="Path_87" data-name="Path 87" d="M107.078,158.055l-2.476,10.12q-11.14,4.4-17.777,6.7a46.89,46.89,0,0,1-15.415,2.3q-13.486,0-20.972-6.577a21.288,21.288,0,0,1-7.482-16.71,59.106,59.106,0,0,1,.557-8.041q.569-4.113,1.809-9.283L54.6,103.713q1.239-4.718,2.09-8.945a38.872,38.872,0,0,0,.845-7.7c0-4.2-.869-7.13-2.6-8.78s-5.029-2.48-9.928-2.48a26.014,26.014,0,0,0-7.379,1.127c-2.525.746-4.683,1.467-6.495,2.137l2.482-10.128q9.12-3.713,17.451-6.355a52.194,52.194,0,0,1,15.781-2.647q13.393,0,20.657,6.474t7.257,16.818c0,1.428-.159,3.943-.5,7.538a50.419,50.419,0,0,1-1.859,9.907L83.165,133.4a86.914,86.914,0,0,0-2.031,9.013,46.391,46.391,0,0,0-.9,7.646q0,6.517,2.911,8.888,2.934,2.365,10.112,2.361a29.193,29.193,0,0,0,7.644-1.181A42.744,42.744,0,0,0,107.078,158.055Zm2.344-137.364a19.146,19.146,0,0,1-6.466,14.572,22.01,22.01,0,0,1-15.566,6.028,22.255,22.255,0,0,1-15.647-6.028,19.1,19.1,0,0,1-6.526-14.572,19.294,19.294,0,0,1,6.526-14.62,23.1,23.1,0,0,1,31.214,0A19.331,19.331,0,0,1,109.422,20.691Z" transform="translate(-31.139)" fill="#fff"/>
</svg>
