<svg id="Group_219" data-name="Group 219" xmlns="http://www.w3.org/2000/svg" width="19.553" height="12.574" viewBox="0 0 19.553 12.574">
  <g id="Group_220" data-name="Group 220" transform="translate(3.318)">
    <g id="Group_219-2" data-name="Group 219">
      <path id="Path_79" data-name="Path 79" d="M86.882,93.821l3.258,3.258a5.1,5.1,0,0,1,2.627-1.088V91.38A9.684,9.684,0,0,0,86.882,93.821Z" transform="translate(-86.882 -91.38)" fill="#575757"/>
    </g>
  </g>
  <g id="Group_222" data-name="Group 222" transform="translate(0 3.251)">
    <g id="Group_221" data-name="Group 221">
      <path id="Path_80" data-name="Path 80" d="M2.508,176.5A9.72,9.72,0,0,0,0,182.961a.573.573,0,0,0,.573.573H4.048a.573.573,0,0,0,.573-.573,5.1,5.1,0,0,1,1.145-3.2Z" transform="translate(0 -176.502)" fill="#575757"/>
    </g>
  </g>
  <g id="Group_224" data-name="Group 224" transform="translate(7.485 5.088)">
    <g id="Group_223" data-name="Group 223">
      <path id="Path_81" data-name="Path 81" d="M202.718,224.739a.571.571,0,0,0-.686-.052l-4.972,3.171a2.292,2.292,0,1,0,3.309,2.9l2.49-5.346A.573.573,0,0,0,202.718,224.739Z" transform="translate(-196 -224.596)" fill="#575757"/>
    </g>
  </g>
  <g id="Group_226" data-name="Group 226" transform="translate(14.629 3.251)">
    <g id="Group_225" data-name="Group 225">
      <path id="Path_82" data-name="Path 82" d="M385.484,176.5l-1.684,1.684a1.711,1.711,0,0,1,.021,1.452l-.753,1.617a4.97,4.97,0,0,1,.3,1.706.573.573,0,0,0,.573.573h3.475a.573.573,0,0,0,.573-.573A9.72,9.72,0,0,0,385.484,176.5Z" transform="translate(-383.068 -176.502)" fill="#575757"/>
    </g>
  </g>
  <g id="Group_228" data-name="Group 228" transform="translate(10.349)">
    <g id="Group_227" data-name="Group 227">
      <path id="Path_83" data-name="Path 83" d="M271,91.38v4.612a5.137,5.137,0,0,1,1.373.352l1.178-.752a1.635,1.635,0,0,1,1.65-.087l1.684-1.684A9.684,9.684,0,0,0,271,91.38Z" transform="translate(-271 -91.38)" fill="#575757"/>
    </g>
  </g>
</svg>
