<svg xmlns="http://www.w3.org/2000/svg" version="1.1" xmlns:xlink="http://www.w3.org/1999/xlink" xmlns:svgjs="http://svgjs.com/svgjs" width="512" height="512" x="0" y="0" viewBox="0 0 64 64" style="enable-background:new 0 0 512 512" xml:space="preserve" class=""><g><g xmlns="http://www.w3.org/2000/svg" id="hacker-2" data-name="hacker"><path d="m38 2h-12a9.01047 9.01047 0 0 0 -9 9v6a1 1 0 0 0 1 1h28a1 1 0 0 0 1-1v-6a9.01047 9.01047 0 0 0 -9-9z" fill="#455a64" data-original="#455a64"></path><path d="m43.59149 3.96057c-4.70428 5.87695-19.98321 6.26605-26.54626 6.14765-.02899.29351-.04523.59078-.04523.89178v6a1 1 0 0 0 1 1h28a1 1 0 0 0 1-1v-6a8.98218 8.98218 0 0 0 -3.40851-7.03943z" fill="#37474f" data-original="#37474f"></path><path d="m39 36h-14a19.02162 19.02162 0 0 0 -19 19v6a1 1 0 0 0 1 1h50a1 1 0 0 0 1-1v-6a19.02162 19.02162 0 0 0 -19-19z" fill="#455a64" data-original="#455a64"></path><path d="m52.3739 41.52148c-10.30566 13.47016-32.51355 16.33277-46.3739 16.72376v2.75476a1 1 0 0 0 1 1h50a1 1 0 0 0 1-1v-6a18.93835 18.93835 0 0 0 -5.6261-13.47852z" fill="#37474f" data-original="#37474f"></path><rect fill="#e53935" height="6" rx="1" width="30" x="17" y="12" data-original="#e53935"></rect><path d="m19 34h26l-13 23z" fill="#cfd8dc" data-original="#cfd8dc"></path><path d="m32.96777 56.749-5.44433-21a1 1 0 0 0 -.19092-.3789l-7.55566-9.31983a1.00191 1.00191 0 0 0 -1.11573-.311l-12 4.31982a1.00017 1.00017 0 0 0 -.147 1.81494l7.48687 4.15917-3.51563 2.10938a1 1 0 0 0 -.13623 1.6167l21 18a1 1 0 0 0 1.61863-1.01028z" fill="#78909c" data-original="#78909c"></path><path d="m28.39984 39.12946a25.04685 25.04685 0 0 1 -8.78906 8.56835l11.73834 10.06147a1 1 0 0 0 1.61865-1.01028z" fill="#546e7a" data-original="#546e7a"></path><path d="m57.33887 30.05908-12-4.31982a1.0007 1.0007 0 0 0 -1.09082.28174l-7.29639 8.31982a.99653.99653 0 0 0 -.21582.4082l-5.70361 22a.99994.99994 0 0 0 1.61865 1.01026l21-18a1 1 0 0 0 -.13623-1.6167l-3.51565-2.10938 7.48684-4.1592a1.00017 1.00017 0 0 0 -.147-1.81494z" fill="#78909c" data-original="#78909c"></path><path d="m29.14 41.98a17.03633 17.03633 0 0 1 -15.92-14.28l5.44-1.96a1.01461 1.01461 0 0 1 1.12006.31l7.55 9.32a.91014.91014 0 0 1 .19.38z" fill="#546e7a" data-original="#546e7a"></path><path d="m50.78 27.7a17.03633 17.03633 0 0 1 -15.92 14.28l1.88-7.23a.94512.94512 0 0 1 .21-.41l7.3-8.32a.99384.99384 0 0 1 1.09-.28z" fill="#546e7a" data-original="#546e7a"></path><path d="m46 22h-28a1 1 0 0 0 -1 1v2a13.01442 13.01442 0 0 0 13 13h4a13.01442 13.01442 0 0 0 13-13v-2a1 1 0 0 0 -1-1z" fill="#ffe0b2" data-original="#ffe0b2"></path><path d="m30 22h-8a1 1 0 0 0 -1 1 5 5 0 0 0 10 0 1 1 0 0 0 -1-1z" fill="#263238" data-original="#263238"></path><path d="m46 22h-5.87067c-3.62194 10.04041-11.74505 13.00946-17.336 13.8114a12.92189 12.92189 0 0 0 7.20667 2.1886h4a13.01442 13.01442 0 0 0 13-13v-2a1 1 0 0 0 -1-1z" fill="#ffcc80" data-original="#ffcc80"></path><path d="m42 22h-8a1 1 0 0 0 -1 1 5 5 0 0 0 10 0 1 1 0 0 0 -1-1z" fill="#263238" data-original="#263238"></path><path d="m49 16h-34a4 4 0 0 0 0 8h34a4 4 0 0 0 0-8z" fill="#455a64" data-original="#455a64"></path><path d="m51.25043 16.697c-7.65979 4.53528-29.37311 5.2489-39.683 5.32324a3.98732 3.98732 0 0 0 3.43257 1.97976h34a3.99748 3.99748 0 0 0 2.25043-7.303z" fill="#37474f" data-original="#37474f"></path></g></g></svg>