<svg xmlns="http://www.w3.org/2000/svg" width="41.158" height="41.159" viewBox="0 0 41.158 41.159"><g transform="translate(0)"><path d="M33.288,11.958a.8.8,0,0,0,.8-.8V2.412A2.414,2.414,0,0,0,31.68,0H2.419A2.414,2.414,0,0,0,.007,2.412V38.747a2.414,2.414,0,0,0,2.412,2.412H31.68a2.414,2.414,0,0,0,2.412-2.412V32.825a.8.8,0,0,0-1.608,0v5.922a.8.8,0,0,1-.8.8H2.419a.8.8,0,0,1-.8-.8V2.412a.8.8,0,0,1,.8-.8H31.68a.8.8,0,0,1,.8.8v8.742A.8.8,0,0,0,33.288,11.958Z" transform="translate(-0.007)" fill="#333"/></g><g transform="translate(9.647 4.341)"><path d="M127.4,54a7.392,7.392,0,0,0-5.074,12.771.8.8,0,0,0,.086.08,7.382,7.382,0,0,0,9.975,0,.8.8,0,0,0,.086-.08A7.392,7.392,0,0,0,127.4,54Zm0,13.184a5.757,5.757,0,0,1-3.5-1.179,4.019,4.019,0,0,1,6.992,0A5.757,5.757,0,0,1,127.4,67.184Zm-1.286-6.11v-.523a1.286,1.286,0,0,1,2.572,0v.523a1.286,1.286,0,0,1-2.572,0Zm5.944,3.753a5.577,5.577,0,0,0-2.368-1.985,2.879,2.879,0,0,0,.6-1.767v-.523a2.894,2.894,0,0,0-5.788,0v.523a2.879,2.879,0,0,0,.6,1.767,5.577,5.577,0,0,0-2.368,1.985,5.788,5.788,0,1,1,9.315,0Z" transform="translate(-120.007 -54)" fill="#333"/></g><g transform="translate(16.239 35.21)"><path d="M207.152,438h-4.341a.8.8,0,1,0,0,1.608h4.341a.8.8,0,1,0,0-1.608Z" transform="translate(-202.007 -438)" fill="#333"/></g><g transform="translate(9.164 30.708)"><path d="M126.226,382H114.811a.8.8,0,1,0,0,1.608h11.415a.8.8,0,1,0,0-1.608Z" transform="translate(-114.007 -382)" fill="#333"/></g><g transform="translate(9.164 26.207)"><path d="M126.226,326H114.811a.8.8,0,1,0,0,1.608h11.415a.8.8,0,1,0,0-1.608Z" transform="translate(-114.007 -326)" fill="#333"/></g><g transform="translate(5.73 21.705)"><path d="M72.66,270.236a.8.8,0,1,0,.236.568A.81.81,0,0,0,72.66,270.236Z" transform="translate(-71.287 -270)" fill="#333"/></g><g transform="translate(5.73 26.207)"><path d="M72.66,326.236a.8.8,0,1,0,.236.568A.811.811,0,0,0,72.66,326.236Z" transform="translate(-71.287 -326)" fill="#333"/></g><g transform="translate(5.73 30.708)"><path d="M72.66,382.236a.8.8,0,1,0,.236.568A.812.812,0,0,0,72.66,382.236Z" transform="translate(-71.287 -382)" fill="#333"/></g><g transform="translate(9.164 21.705)"><path d="M126.226,270H114.811a.8.8,0,1,0,0,1.608h11.415a.8.8,0,1,0,0-1.608Z" transform="translate(-114.007 -270)" fill="#333"/></g><g transform="translate(23.922 10.022)"><path d="M313.137,125.129a3.376,3.376,0,0,0-4.612,1.236l-10.116,17.522a.805.805,0,0,0-.1.313l-.712,6.378a.8.8,0,0,0,1.276.737l5.168-3.806a.8.8,0,0,0,.219-.245l10.116-17.522A3.38,3.38,0,0,0,313.137,125.129ZM299.4,148.93l.372-3.331,2.327,1.343Zm3.871-3.167-3.063-1.769,8.118-14.061,3.063,1.769Zm9.714-16.826-.792,1.372-3.063-1.769.792-1.372a1.769,1.769,0,0,1,3.063,1.769Z" transform="translate(-297.589 -124.675)" fill="#333"/></g></svg>