<svg xmlns="http://www.w3.org/2000/svg" width="31.732" height="31.732" viewBox="0 0 31.732 31.732"><path d="M15.866,0A15.866,15.866,0,1,0,31.732,15.866,15.881,15.881,0,0,0,15.866,0Z" fill="#4bae4f" fill-rule="evenodd"/><path d="M112.241,150.976c-2.027-2.027-4.041-4.072-6.074-6.1a.584.584,0,0,1,0-.818l2.337-2.337a.584.584,0,0,1,.818,0l3.341,3.341,8.59-8.6a.591.591,0,0,1,.824,0l2.343,2.343a.572.572,0,0,1,0,.818l-11.36,11.348A.572.572,0,0,1,112.241,150.976Z" transform="translate(-99.43 -127.853)" fill="#fff"/></svg>