<svg xmlns="http://www.w3.org/2000/svg" width="31.996" height="41.159" viewBox="0 0 31.996 41.159"><g transform="translate(0)"><path d="M110.3,112.246h9.464a.676.676,0,0,0,0-1.352H110.3a.676.676,0,0,0,0,1.352Z" transform="translate(-105.391 -101.979)" fill="#db6161"/><path d="M125.1,157.821H110.3a.676.676,0,0,0,0,1.352h14.8a.676.676,0,0,0,0-1.352Z" transform="translate(-105.392 -145.134)" fill="#db6161"/><path d="M110.3,206.1h9.464a.676.676,0,0,0,0-1.352H110.3a.676.676,0,0,0,0,1.352Z" transform="translate(-105.391 -188.287)" fill="#db6161"/><path d="M115.263,366.171h-14.39a.676.676,0,0,0-.676.676v4.232a.676.676,0,0,0,.676.676h14.39a.676.676,0,0,0,.676-.676v-4.232A.676.676,0,0,0,115.263,366.171Zm-.676,4.232H101.549v-2.879h13.038Z" transform="translate(-96.724 -336.735)" fill="#db6161"/><path d="M110.3,253.024h5.289a.676.676,0,1,0,0-1.352H110.3a.676.676,0,0,0,0,1.352Z" transform="translate(-105.391 -231.44)" fill="#db6161"/><path d="M110.3,299.95h9.464a.676.676,0,0,0,0-1.352H110.3a.676.676,0,0,0,0,1.352Z" transform="translate(-105.391 -274.594)" fill="#db6161"/><path d="M125.1,63.967H110.3a.676.676,0,0,0,0,1.352h14.8a.676.676,0,0,0,0-1.352Z" transform="translate(-105.392 -58.825)" fill="#db6161"/><path d="M350.707,299.95h2.911a.676.676,0,1,0,0-1.352h-2.911a.676.676,0,0,0,0,1.352Z" transform="translate(-326.474 -274.594)" fill="#db6161"/><path d="M352.312,360.233v-1.2a3.023,3.023,0,0,1,.655.268.574.574,0,0,0,.276.071.531.531,0,0,0,.252-1,3.315,3.315,0,0,0-1.144-.379v-.11a.41.41,0,0,0-.82,0v.095a1.617,1.617,0,0,0-1.657,1.554c0,.939.56,1.373,1.7,1.68v1.254a3.012,3.012,0,0,1-1.01-.442.574.574,0,0,0-.308-.1.542.542,0,0,0-.276,1.01,3.944,3.944,0,0,0,1.554.552v.426a.41.41,0,1,0,.82,0v-.418c.994-.111,1.672-.678,1.672-1.562S353.511,360.556,352.312,360.233Zm-.742-.2c-.434-.158-.544-.323-.544-.568s.166-.442.544-.5Zm.742,2.477v-1.1c.426.15.56.323.56.584C352.872,362.276,352.683,362.449,352.312,362.5Z" transform="translate(-326.177 -328.735)" fill="#db6161"/><path d="M350.707,65.319h2.911a.676.676,0,0,0,0-1.352h-2.911a.676.676,0,0,0,0,1.352Z" transform="translate(-326.474 -58.825)" fill="#db6161"/><path d="M350.707,253.024h2.911a.676.676,0,0,0,0-1.352h-2.911a.676.676,0,0,0,0,1.352Z" transform="translate(-326.474 -231.44)" fill="#db6161"/><path d="M86.957,0H59.018a2.031,2.031,0,0,0-2.029,2.029V39.492a1.408,1.408,0,0,0,1.385,1.546,1.763,1.763,0,0,0,.8-.207l1.422-.726a2.328,2.328,0,0,1,1.794,0l1.422.726a3.652,3.652,0,0,0,3.024,0l1.422-.726a2.327,2.327,0,0,1,1.794,0l1.422.726a3.652,3.652,0,0,0,3.024,0l1.422-.726a2.327,2.327,0,0,1,1.794,0l1.422.726a3.652,3.652,0,0,0,3.024,0l1.422-.726a2.328,2.328,0,0,1,1.794,0l1.422.726a1.761,1.761,0,0,0,.8.207h0a1.319,1.319,0,0,0,1.029-.472,1.643,1.643,0,0,0,.356-1.074V2.028A2.031,2.031,0,0,0,86.957,0Zm.676,39.492a.454.454,0,0,1-.033.194.435.435,0,0,1-.188-.059L85.991,38.9a3.652,3.652,0,0,0-3.024,0l-1.422.726a2.328,2.328,0,0,1-1.794,0L78.33,38.9a3.651,3.651,0,0,0-3.024,0l-1.422.726a2.328,2.328,0,0,1-1.794,0L70.669,38.9a3.651,3.651,0,0,0-3.024,0l-1.422.726a2.328,2.328,0,0,1-1.794,0L63.008,38.9a3.652,3.652,0,0,0-3.024,0l-1.422.726a.437.437,0,0,1-.188.059h0a.454.454,0,0,1-.033-.194V2.029a.677.677,0,0,1,.676-.676H86.957a.677.677,0,0,1,.676.676V39.492Z" transform="translate(-56.989)" fill="#db6161"/><path d="M350.707,206.1h2.911a.676.676,0,0,0,0-1.352h-2.911a.676.676,0,0,0,0,1.352Z" transform="translate(-326.474 -188.287)" fill="#db6161"/><path d="M350.707,112.246h2.911a.676.676,0,0,0,0-1.352h-2.911a.676.676,0,0,0,0,1.352Z" transform="translate(-326.474 -101.979)" fill="#db6161"/><path d="M350.707,159.173h2.911a.676.676,0,0,0,0-1.352h-2.911a.676.676,0,0,0,0,1.352Z" transform="translate(-326.474 -145.134)" fill="#db6161"/></g></svg>