<svg xmlns="http://www.w3.org/2000/svg" width="42.252" height="41.159" viewBox="0 0 42.252 41.159"><path d="M43.974,11.642H40.331V9.457A1.461,1.461,0,0,0,38.874,8H37.417A1.461,1.461,0,0,0,35.96,9.457v2.185H16.291V9.457A1.461,1.461,0,0,0,14.834,8H13.378a1.461,1.461,0,0,0-1.457,1.457v2.185H8.278A3.265,3.265,0,0,0,5,14.921v30.96a3.265,3.265,0,0,0,3.278,3.278h35.7a3.265,3.265,0,0,0,3.278-3.278V14.921A3.265,3.265,0,0,0,43.974,11.642Zm-5.1-2.185v5.828H37.417V9.457Zm-24.04,0v5.828H13.378V9.457Zm30.96,36.424A1.8,1.8,0,0,1,43.974,47.7H8.278a1.8,1.8,0,0,1-1.821-1.821V20.748H45.795Zm0-26.589H6.457V14.921A1.8,1.8,0,0,1,8.278,13.1h3.642v2.185a1.461,1.461,0,0,0,1.457,1.457h1.457a1.461,1.461,0,0,0,1.457-1.457V13.1H35.96v2.185a1.461,1.461,0,0,0,1.457,1.457h1.457a1.461,1.461,0,0,0,1.457-1.457V13.1h3.642a1.8,1.8,0,0,1,1.821,1.821Z" transform="translate(-5 -8)" fill="#333"/><path d="M59.013,52H51.728a.731.731,0,0,0-.728.728v7.285a.731.731,0,0,0,.728.728h7.285a.731.731,0,0,0,.728-.728V52.728A.731.731,0,0,0,59.013,52Zm-.728,7.285H52.457V53.457h5.828Z" transform="translate(-34.245 -35.974)" fill="#333"/><path d="M26.013,52H18.728a.731.731,0,0,0-.728.728v7.285a.731.731,0,0,0,.728.728h7.285a.731.731,0,0,0,.728-.728V52.728A.731.731,0,0,0,26.013,52Zm-.728,7.285H19.457V53.457h5.828Z" transform="translate(-13.265 -35.974)" fill="#333"/><path d="M92.013,52H84.728a.731.731,0,0,0-.728.728v7.285a.731.731,0,0,0,.728.728h7.285a.731.731,0,0,0,.728-.728V52.728A.731.731,0,0,0,92.013,52Zm-.728,7.285H85.457V53.457h5.828Z" transform="translate(-55.225 -35.974)" fill="#333"/><path d="M61.18,83.883a.7.7,0,0,0-1.02,0l-.219.219v-.073a.731.731,0,0,0-.728-.728H51.928a.731.731,0,0,0-.728.728v7.285a.731.731,0,0,0,.728.728h7.285a.731.731,0,0,0,.728-.728V86.141L61.18,84.9A.7.7,0,0,0,61.18,83.883Zm-2.7,6.7H52.657V87.707l2.331,2.368a.7.7,0,0,0,1.02,0l2.44-2.44v2.95Zm0-5.027L55.5,88.509l-2.04-2.04a.733.733,0,0,0-.8-.146v-1.53h5.828Z" transform="translate(-34.372 -55.873)" fill="#333"/><path d="M26.013,84H18.728a.731.731,0,0,0-.728.728v7.285a.731.731,0,0,0,.728.728h7.285a.731.731,0,0,0,.728-.728V84.728A.731.731,0,0,0,26.013,84Zm-.728,7.285H19.457V85.457h5.828Z" transform="translate(-13.265 -56.318)" fill="#333"/><path d="M94.053,84.583a.7.7,0,0,0-1.02,0l-.291.291v-.146A.731.731,0,0,0,92.013,84H84.728a.731.731,0,0,0-.728.728v7.285a.731.731,0,0,0,.728.728h7.285a.731.731,0,0,0,.728-.728v-5.1L94.053,85.6a.7.7,0,0,0,0-1.02Zm-2.768,6.7H85.457v-2.95l2.44,2.44a.7.7,0,0,0,1.02,0l2.368-2.4Zm0-4.954-2.878,2.877-2.076-2.04a.672.672,0,0,0-.874-.109v-1.6h5.828Z" transform="translate(-55.225 -56.318)" fill="#333"/></svg>