<svg xmlns="http://www.w3.org/2000/svg" width="567" height="567" viewBox="0 0 567 567">
  <g id="Group_11" data-name="Group 11" transform="translate(-513 600)">
    <g id="download" transform="translate(513.715 -599.785)">
      <g id="Group_10" data-name="Group 10" transform="translate(-0.215 -0.215)">
        <circle id="Ellipse_2" data-name="Ellipse 2" cx="283.5" cy="283.5" r="283.5" transform="translate(-0.5)" fill="#6d84e1"/>
        <path id="Path_1" data-name="Path 1" d="M258.12,0Q245.6,0,233.336,1.08C377.843,13.81,488.677,134.837,488.677,279.9S377.843,546,233.336,558.728q12.25,1.08,24.784,1.08c154.582,0,279.9-125.313,279.9-279.9S412.7.018,258.12.018Z" transform="translate(23.749 1.983)" fill="#6179db"/>
        <path id="Path_2" data-name="Path 2" d="M266.322,507.906A232.709,232.709,0,0,1,149.18,476.8a8.45,8.45,0,1,1,9.489-13.985A215.376,215.376,0,1,0,266.322,60.672a8.444,8.444,0,1,1,0-16.889c128.164,0,232.062,103.9,232.062,232.062s-103.9,232.061-232.062,232.061Z" transform="translate(15.565 6.069)" fill="#fff"/>
        <g id="Group_1" data-name="Group 1" transform="translate(215.783 56.827)">
          <path id="Path_4" data-name="Path 4" d="M204.238,67.053a8.444,8.444,0,1,0-8.445-8.444,8.444,8.444,0,0,0,8.445,8.444Z" transform="translate(-195.793 -50.164)" fill="#fff"/>
        </g>
        <g id="Group_2" data-name="Group 2" transform="translate(161.683 79.133)">
          <path id="Path_5" data-name="Path 5" d="M154.759,87.45a8.445,8.445,0,1,0-8.444-8.445,8.445,8.445,0,0,0,8.444,8.445Z" transform="translate(-146.315 -70.561)" fill="#fff"/>
        </g>
        <g id="Group_3" data-name="Group 3" transform="translate(115.194 114.663)">
          <path id="Path_6" data-name="Path 6" d="M112.246,119.958a8.444,8.444,0,1,0-8.444-8.444,8.444,8.444,0,0,0,8.444,8.444Z" transform="translate(-103.802 -103.069)" fill="#fff"/>
        </g>
        <g id="Group_4" data-name="Group 4" transform="translate(79.505 161.027)">
          <path id="Path_7" data-name="Path 7" d="M79.6,162.362a8.444,8.444,0,1,0-8.444-8.445,8.444,8.444,0,0,0,8.444,8.445Z" transform="translate(-71.152 -145.473)" fill="#fff"/>
        </g>
        <g id="Group_5" data-name="Group 5" transform="translate(57.022 215.04)">
          <path id="Path_8" data-name="Path 8" d="M59.033,211.771a8.444,8.444,0,1,0-8.444-8.445A8.444,8.444,0,0,0,59.033,211.771Z" transform="translate(-50.589 -194.882)" fill="#fff"/>
        </g>
        <g id="Group_6" data-name="Group 6" transform="translate(49.286 273.053)">
          <path id="Path_9" data-name="Path 9" d="M51.958,264.818a8.444,8.444,0,1,0-8.444-8.444,8.444,8.444,0,0,0,8.444,8.444Z" transform="translate(-43.514 -247.93)" fill="#fff"/>
        </g>
        <g id="Group_7" data-name="Group 7" transform="translate(56.827 331.066)">
          <path id="Path_10" data-name="Path 10" d="M58.855,317.89a8.444,8.444,0,1,0-8.444-8.444,8.444,8.444,0,0,0,8.444,8.444Z" transform="translate(-50.411 -301.001)" fill="#fff"/>
        </g>
        <g id="Group_8" data-name="Group 8" transform="translate(79.133 385.167)">
          <path id="Path_11" data-name="Path 11" d="M79.252,367.368a8.444,8.444,0,1,0-8.445-8.444,8.444,8.444,0,0,0,8.445,8.444Z" transform="translate(-70.808 -350.479)" fill="#fff"/>
        </g>
        <g id="Group_9" data-name="Group 9" transform="translate(114.663 431.655)">
          <path id="Path_12" data-name="Path 12" d="M111.76,409.881a8.445,8.445,0,1,0-8.444-8.445,8.445,8.445,0,0,0,8.444,8.445Z" transform="translate(-103.316 -392.992)" fill="#fff"/>
        </g>
      </g>
    </g>
    <path id="Polygon_1" data-name="Polygon 1" d="M148.074,14.868a7,7,0,0,1,12.851,0l35.963,83.216a7,7,0,0,0,5.769,4.192l90.229,8.5A7,7,0,0,1,296.858,123l-68,59.94a7,7,0,0,0-2.2,6.78l19.8,88.478a7,7,0,0,1-10.4,7.552l-77.986-46.175a7,7,0,0,0-7.133,0L72.947,285.75a7,7,0,0,1-10.4-7.552l19.8-88.478a7,7,0,0,0-2.2-6.78L12.142,123a7,7,0,0,1,3.972-12.22l90.229-8.5a7,7,0,0,0,5.769-4.192Z" transform="translate(642 -471)" fill="#fff"/>
  </g>
</svg>
