<svg xmlns="http://www.w3.org/2000/svg" width="567" height="567" viewBox="0 0 567 567">
  <path id="Exclusion_1" data-name="Exclusion 1" d="M283.5,576a285.6,285.6,0,0,1-57.135-5.76,281.949,281.949,0,0,1-101.372-42.658A284.326,284.326,0,0,1,22.279,402.851,282.078,282.078,0,0,1,5.76,349.635a286.265,286.265,0,0,1,0-114.27A281.948,281.948,0,0,1,48.417,133.992,284.326,284.326,0,0,1,173.149,31.279,282.078,282.078,0,0,1,226.365,14.76a286.265,286.265,0,0,1,114.27,0A281.948,281.948,0,0,1,442.008,57.417,284.326,284.326,0,0,1,544.721,182.149a282.078,282.078,0,0,1,16.519,53.216,286.265,286.265,0,0,1,0,114.27,281.949,281.949,0,0,1-42.658,101.372A284.326,284.326,0,0,1,393.851,553.721a282.078,282.078,0,0,1-53.216,16.519A285.6,285.6,0,0,1,283.5,576Zm0-176.5a7.005,7.005,0,0,1,3.567.977l105.827,62.66a6.911,6.911,0,0,0,3.561,1,7.128,7.128,0,0,0,5.5-2.676,6.832,6.832,0,0,0,1.333-5.873L376.424,335.519a7,7,0,0,1,2.2-6.781l92.28-81.335a7,7,0,0,0-3.973-12.221L344.5,223.645a7,7,0,0,1-5.769-4.192l-48.8-112.924a7,7,0,0,0-12.852,0l-48.8,112.924a7,7,0,0,1-5.769,4.192L100.066,235.183A7,7,0,0,0,96.094,247.4l92.28,81.335a7,7,0,0,1,2.2,6.781L163.709,455.581a6.831,6.831,0,0,0,1.332,5.872,7.128,7.128,0,0,0,5.5,2.676,6.911,6.911,0,0,0,3.561-1l105.827-62.66A7.006,7.006,0,0,1,283.5,399.5Z" transform="translate(0 -9)" fill="gold"/>
</svg>
