<svg xmlns="http://www.w3.org/2000/svg" xmlns:xlink="http://www.w3.org/1999/xlink" width="251" height="251" viewBox="0 0 251 251">
  <defs>
    <linearGradient id="linear-gradient" x1="-0.01" y1="0.5" x2="1.01" y2="0.5" gradientUnits="objectBoundingBox">
      <stop offset="0" stop-color="#4bae4f"/>
      <stop offset="1" stop-color="#085007"/>
    </linearGradient>
  </defs>
  <g id="Group_3" data-name="Group 3" transform="translate(-2.5 -2.5)">
    <g id="Group_2" data-name="Group 2">
      <g id="Group_1" data-name="Group 1">
        <path id="Path_1" data-name="Path 1" d="M128,2.5A125.545,125.545,0,0,0,11.65,80.875a3,3,0,1,0,5.56,2.25A119.574,119.574,0,1,1,8.5,128a120.8,120.8,0,0,1,2.03-22.05,3,3,0,1,0-5.9-1.1A125.513,125.513,0,1,0,128,2.5Z" fill="url(#linear-gradient)"/>
        <path id="Path_2" data-name="Path 2" d="M8.95,98.845a3,3,0,0,0,3.68-2.11c.41-1.5.84-3,1.28-4.39a3,3,0,1,0-5.73-1.79c-.46,1.5-.91,3.03-1.34,4.61a3,3,0,0,0,2.11,3.68Z" fill="url(#linear-gradient)"/>
        <path id="Path_3" data-name="Path 3" d="M128,233.5A105.5,105.5,0,1,0,22.5,128,105.617,105.617,0,0,0,128,233.5Zm0-205A99.5,99.5,0,1,1,28.5,128,99.612,99.612,0,0,1,128,28.5Z" fill="url(#linear-gradient)"/>
        <path id="Path_4" data-name="Path 4" d="M81.935,170.145h0a13.22,13.22,0,0,0,12.4-8.725l22.24-61.87A10.185,10.185,0,0,0,107,85.92h0a10.2,10.2,0,0,0-9.58,6.75L82,135.57,66.785,92.745a10.21,10.21,0,0,0-9.61-6.78h-.06a10.19,10.19,0,0,0-9.585,13.6l21.97,61.81a13.2,13.2,0,0,0,12.435,8.77ZM53.73,93.74a4.14,4.14,0,0,1,3.42-1.775h.055a4.2,4.2,0,0,1,3.95,2.785l15.7,44.205A5.425,5.425,0,0,0,82,142.6h0a5.42,5.42,0,0,0,5.155-3.635l15.86-44.27a4.2,4.2,0,0,1,3.94-2.775h0a4.185,4.185,0,0,1,3.94,5.6l-22.2,61.87a7.2,7.2,0,0,1-6.755,4.755h0a7.2,7.2,0,0,1-6.77-4.78L53.2,97.555a4.14,4.14,0,0,1,.525-3.815Z" fill="url(#linear-gradient)"/>
        <path id="Path_5" data-name="Path 5" d="M128.2,167.06a10.305,10.305,0,0,0,7.34,3.035h0a10.4,10.4,0,0,0,10.38-10.4l-.06-63.425A10.41,10.41,0,0,0,135.5,85.89h0a10.39,10.39,0,0,0-10.38,10.4l.06,63.425a10.31,10.31,0,0,0,3.015,7.345Zm4.17-73.88a4.36,4.36,0,0,1,3.1-1.29h0a4.4,4.4,0,0,1,4.4,4.385l.06,63.425a4.4,4.4,0,0,1-4.39,4.4h0a4.38,4.38,0,0,1-4.39-4.385l-.06-63.425a4.35,4.35,0,0,1,1.28-3.105Z" fill="url(#linear-gradient)"/>
        <path id="Path_6" data-name="Path 6" d="M173.575,120.315a7.16,7.16,0,0,0,5.085,2.105h.54c4.17,0,6.965-.32,8.795-1a9.855,9.855,0,0,0,4.87-3.775,10.7,10.7,0,0,0,1.765-6.145,10.076,10.076,0,0,0-4.965-9.175c-2.23-1.35-5.725-1.97-11-1.97a7.2,7.2,0,0,0-7.19,7.205v7.655A7.155,7.155,0,0,0,173.575,120.315Zm4.23-13.6a1.3,1.3,0,0,1,.9-.35c5.44,0,7.3.77,7.88,1.12.95.56,2.04,1.525,2.045,4.03a4.8,4.8,0,0,1-.73,2.77,3.88,3.88,0,0,1-2,1.5c-.625.23-2.335.62-6.725.625h-.535a1.2,1.2,0,0,1-.845-.35,1.175,1.175,0,0,1-.355-.85v-7.645a1.205,1.205,0,0,1,.365-.85Z" fill="url(#linear-gradient)"/>
        <path id="Path_7" data-name="Path 7" d="M165.4,170.065h3.335a8.79,8.79,0,0,0,8.765-8.79V137.33a.435.435,0,0,1,.43-.425c6.1-.12,10.375-.55,13.09-1.325A25.256,25.256,0,0,0,204.145,127c3.23-4.085,4.915-9.35,4.91-15.5a26.652,26.652,0,0,0-3.73-14.25,21.815,21.815,0,0,0-10.335-8.84c-4.185-1.74-10.615-2.59-19.635-2.575h-10a8.785,8.785,0,0,0-8.77,8.785l.065,66.645A8.785,8.785,0,0,0,165.4,170.065Zm-.07-78.2h10.13c8.035,0,13.82.71,17.19,2.115a15.725,15.725,0,0,1,7.545,6.46,20.753,20.753,0,0,1,2.83,11.1c0,4.805-1.18,8.65-3.62,11.755a19.189,19.189,0,0,1-10.075,6.53c-1.5.425-4.7.955-11.545,1.09a6.47,6.47,0,0,0-6.285,6.425l.025,23.94a2.785,2.785,0,0,1-2.78,2.785H165.4a2.78,2.78,0,0,1-2.78-2.775l-.065-66.645a2.78,2.78,0,0,1,2.775-2.78Z" fill="url(#linear-gradient)"/>
      </g>
    </g>
  </g>
</svg>
